<?xml version="1.0" encoding="UTF-8" standalone="no"?>
<!DOCTYPE svg PUBLIC "-//W3C//DTD SVG 1.1//EN" "http://www.w3.org/Graphics/SVG/1.1/DTD/svg11.dtd">
<!-- Created with Vectornator (http://vectornator.io/) -->
<svg height="100%" stroke-miterlimit="10" style="fill-rule:nonzero;clip-rule:evenodd;stroke-linecap:round;stroke-linejoin:round;" version="1.1" viewBox="0 0 158 158.2" width="100%" xml:space="preserve" xmlns="http://www.w3.org/2000/svg" xmlns:vectornator="http://vectornator.io" xmlns:xlink="http://www.w3.org/1999/xlink">
<defs/>
<clipPath id="ArtboardFrame">
<rect height="158.2" width="158" x="0" y="0"/>
</clipPath>
<g clip-path="url(#ArtboardFrame)" id="Layer-2" vectornator:layerName="Layer 2">
<g opacity="1">
<path d="M135.085 32.5173L85.1453 2.86728C79.2097-0.672764 71.8109-0.672766 65.8753 2.86728L15.9253 32.5173C9.91696 36.1419 6.25886 42.6604 6.29528 49.6773L6.29528 108.967C6.26239 115.981 9.92004 122.494 15.9253 126.117L65.8653 155.757C71.8015 159.295 79.1991 159.295 85.1353 155.757L135.075 126.117C141.087 122.495 144.75 115.976 144.715 108.957L144.715 49.6773C144.752 42.6604 141.094 36.1419 135.085 32.5173Z" fill="#ffffff" fill-rule="nonzero" opacity="1" stroke="none"/>
<path d="M135.085 32.5173L85.1453 2.86728C79.2097-0.672764 71.8109-0.672766 65.8753 2.86728L15.9253 32.5173C9.91696 36.1419 6.25886 42.6604 6.29528 49.6773L6.29528 108.967C6.26239 115.981 9.92004 122.494 15.9253 126.117L65.8653 155.757C71.8015 159.295 79.1991 159.295 85.1353 155.757L135.075 126.117C141.087 122.495 144.75 115.976 144.715 108.957L144.715 49.6773C144.752 42.6604 141.094 36.1419 135.085 32.5173ZM67.6153 152.727L17.6753 123.087C12.7402 120.097 9.73424 114.738 9.75528 108.967L9.75528 49.6773C9.73225 43.9063 12.7387 38.5464 17.6753 35.5573L67.6153 5.90728C72.4757 3.00765 78.5349 3.00765 83.3953 5.90728L133.295 35.5573C137.409 38.0488 140.215 42.2269 140.965 46.9773C139.305 43.4473 135.575 42.4773 131.225 44.9773L84.0153 74.2173C78.1253 77.6473 73.7853 81.5173 73.7753 88.6173L73.7753 146.837C73.7753 151.087 75.4853 153.837 78.1253 154.647C77.2608 154.806 76.3842 154.889 75.5053 154.897C72.7282 154.895 70.0028 154.146 67.6153 152.727Z" fill="#2f3a3e" fill-rule="nonzero" opacity="1" stroke="none"/>
<path d="M121.995 114.697L109.555 122.137C109.222 122.271 108.999 122.588 108.985 122.947L108.985 126.217C108.985 126.617 109.255 126.777 109.585 126.587L122.215 118.907C122.525 118.675 122.673 118.286 122.595 117.907L122.595 115.037C122.585 114.667 122.295 114.507 121.995 114.697Z" fill="#3ab14a" fill-rule="nonzero" opacity="1" stroke="none"/>
<path d="M95.5153 87.3073C95.9153 87.1073 96.2453 87.3073 96.2553 87.8773L96.2953 92.2173C97.7912 91.5377 99.4602 91.3352 101.075 91.6373C101.385 91.7173 101.515 92.1373 101.395 92.6373L100.445 96.4473C100.373 96.7348 100.225 96.9975 100.015 97.2073C99.9417 97.2798 99.8574 97.3406 99.7653 97.3873C99.6522 97.4484 99.5219 97.4696 99.3953 97.4473C97.8204 97.0985 96.1719 97.3632 94.7853 98.1873C92.7578 99.1006 91.4325 101.094 91.3753 103.317C91.3753 105.317 92.3753 105.867 95.8653 105.927C100.475 106.007 102.475 108.017 102.525 112.667C102.416 117.521 100.178 122.081 96.4053 125.137L96.4853 129.397C96.4782 129.926 96.2033 130.416 95.7553 130.697L93.2353 132.147C92.8353 132.347 92.5053 132.147 92.4953 131.587L92.4953 127.397C90.3353 128.297 88.1453 128.507 86.7453 127.947C86.4853 127.847 86.3653 127.457 86.4753 127.007L87.3853 123.157C87.4545 122.853 87.6108 122.575 87.8353 122.357C87.9065 122.289 87.9873 122.232 88.0753 122.187C88.2057 122.129 88.3549 122.129 88.4853 122.187C90.268 122.671 92.1694 122.43 93.7753 121.517C96.0927 120.4 97.5987 118.089 97.6853 115.517C97.6853 113.357 96.4953 112.457 93.6853 112.437C90.0553 112.437 86.6853 111.737 86.6153 106.437C86.6988 101.807 88.8483 97.4567 92.4753 94.5773L92.2953 90.2173C92.2937 89.6806 92.5698 89.1812 93.0253 88.8973L95.5153 87.3073Z" fill="#ffffff" fill-rule="nonzero" opacity="1" stroke="none"/>
<path d="M209.295 81.6173C208.029 80.0932 206.523 78.786 204.835 77.7473L204.195 77.3673C205.542 76.4708 206.76 75.3941 207.815 74.1673C210.152 71.447 211.442 67.9831 211.455 64.3973C211.563 61.3078 210.834 58.2466 209.345 55.5373C207.939 53.0953 205.984 51.0138 203.635 49.4573C201.227 47.8766 198.565 46.7231 195.765 46.0473C192.895 45.3374 189.952 44.9648 186.995 44.9373L166.995 44.9373C165.635 44.9037 164.503 45.9769 164.465 47.3373L164.465 111.257C164.503 112.618 165.635 113.691 166.995 113.657L188.535 113.657C191.613 113.629 194.67 113.161 197.615 112.267C200.462 111.424 203.142 110.095 205.535 108.337C207.868 106.604 209.79 104.378 211.165 101.817C212.614 99.0436 213.33 95.9455 213.245 92.8173C213.272 90.741 212.934 88.6762 212.245 86.7173C211.56 84.8613 210.563 83.1363 209.295 81.6173ZM197.045 67.5573C196.484 68.5197 195.723 69.3514 194.815 69.9973C193.803 70.7145 192.678 71.2555 191.485 71.5973C190.186 71.9837 188.841 72.1923 187.485 72.2173L178.105 72.2173L178.105 56.6873L187.215 56.6873C188.664 56.711 190.106 56.8921 191.515 57.2273C192.716 57.4993 193.86 57.98 194.895 58.6473C195.776 59.2239 196.506 60.0021 197.025 60.9173C197.578 61.9666 197.847 63.1421 197.805 64.3273C197.85 65.453 197.587 66.5697 197.045 67.5573ZM178.135 83.7773L189.135 83.7773C190.604 83.8123 192.059 84.0616 193.455 84.5173C194.652 84.9056 195.765 85.5163 196.735 86.3173C197.633 87.0674 198.353 88.0064 198.845 89.0673C199.381 90.2777 199.63 91.595 199.575 92.9173C199.601 94.2091 199.317 95.4883 198.745 96.6473C198.2 97.7228 197.425 98.6651 196.475 99.4073C195.425 100.217 194.245 100.843 192.985 101.257C191.621 101.713 190.194 101.956 188.755 101.977L178.135 101.977L178.135 83.7773ZM250.825 46.6173C250.464 45.6005 249.494 44.9281 248.415 44.9473L241.295 44.9473C240.224 44.934 239.261 45.5999 238.895 46.6073L217.195 110.527C216.946 111.259 217.082 112.067 217.555 112.677C218.034 113.298 218.771 113.667 219.555 113.677L228.095 113.677C229.178 113.69 230.149 113.01 230.505 111.987L235.355 97.1273L254.055 97.1273L258.815 111.977C259.167 113.009 260.145 113.696 261.235 113.677L269.725 113.677C270.51 113.667 271.246 113.298 271.725 112.677C272.201 112.068 272.339 111.261 272.095 110.527L250.825 46.6173ZM250.295 85.2173L239.295 85.2173L244.855 68.0773L250.295 85.2173ZM323.485 84.0873C322.329 82.6057 320.984 81.2813 319.485 80.1473C317.991 79.0178 316.406 78.0143 314.745 77.1473C313.064 76.2713 311.331 75.4999 309.555 74.8373C307.835 74.1973 306.085 73.6073 304.345 73.0873C302.865 72.6573 301.285 72.1473 299.635 71.5873C298.149 71.0728 296.721 70.4024 295.375 69.5873C294.243 68.922 293.251 68.0423 292.455 66.9973C291.778 66.04 291.427 64.8897 291.455 63.7173C291.421 62.5507 291.693 61.3956 292.245 60.3673C292.79 59.3902 293.545 58.5465 294.455 57.8973C295.47 57.1779 296.604 56.6431 297.805 56.3173C300.628 55.5115 303.628 55.5742 306.415 56.4973C307.645 56.9399 308.777 57.6194 309.745 58.4973C310.697 59.388 311.468 60.4542 312.015 61.6373C312.644 63.0162 313.059 64.4831 313.245 65.9873C313.44 67.216 314.511 68.1126 315.755 68.0873L324.525 68.0873C325.196 68.0894 325.841 67.8313 326.325 67.3673C326.796 66.9161 327.057 66.2891 327.045 65.6373C327.014 62.5008 326.24 59.4163 324.785 56.6373C323.385 54.0033 321.459 51.6854 319.125 49.8273C316.728 47.9385 314.021 46.4802 311.125 45.5173C305.311 43.5831 299.041 43.4957 293.175 45.2673C290.38 46.077 287.743 47.3551 285.375 49.0473C283.072 50.7051 281.138 52.8231 279.695 55.2673C278.189 57.8623 277.415 60.8172 277.455 63.8173C277.396 66.7796 278.183 69.6972 279.725 72.2273C281.189 74.556 283.079 76.5881 285.295 78.2173C287.532 79.8633 289.96 81.2332 292.525 82.2973C295.045 83.3573 297.525 84.2973 299.995 85.0173C301.595 85.5039 303.262 86.0506 304.995 86.6573C306.517 87.181 307.976 87.8719 309.345 88.7173C310.511 89.421 311.516 90.3612 312.295 91.4773C312.999 92.5533 313.349 93.8226 313.295 95.1073C313.338 96.2683 313.047 97.4173 312.455 98.4173C311.85 99.386 311.041 100.212 310.085 100.837C309.01 101.533 307.822 102.037 306.575 102.327C303.509 103.077 300.3 103.015 297.265 102.147C295.868 101.727 294.563 101.048 293.415 100.147C292.311 99.2729 291.39 98.1888 290.705 96.9573C289.954 95.5693 289.469 94.0533 289.275 92.4873C289.076 91.2625 288.006 90.3712 286.765 90.3973L278.035 90.3973C277.36 90.3953 276.71 90.6572 276.225 91.1273C275.756 91.5826 275.498 92.2135 275.515 92.8673C275.57 96.125 276.462 99.3137 278.105 102.127C279.683 104.784 281.786 107.091 284.285 108.907C286.849 110.763 289.705 112.175 292.735 113.087C295.83 114.036 299.049 114.518 302.285 114.517C305.23 114.513 308.162 114.123 311.005 113.357C313.849 112.622 316.552 111.423 319.005 109.807C321.384 108.227 323.399 106.157 324.915 103.737C326.518 101.108 327.336 98.0758 327.275 94.9973C327.295 92.9543 326.956 90.9236 326.275 88.9973C325.608 87.2247 324.666 85.5679 323.485 84.0873ZM379.495 44.9473L371.415 44.9473C370.055 44.9137 368.923 45.9869 368.885 47.3473L368.885 72.4273L346.375 72.4273L346.375 47.3473C346.337 45.9869 345.206 44.9137 343.845 44.9473L335.845 44.9473C334.485 44.9137 333.353 45.9869 333.315 47.3473L333.315 111.267C333.353 112.628 334.485 113.701 335.845 113.667L343.845 113.667C345.206 113.701 346.337 112.628 346.375 111.267L346.375 84.1273L368.885 84.1273L368.885 111.267C368.923 112.628 370.055 113.701 371.415 113.667L379.495 113.667C380.856 113.701 381.987 112.628 382.025 111.267L382.025 47.3473C381.987 45.9869 380.856 44.9137 379.495 44.9473ZM172.225 124.747L169.165 124.747L169.165 132.927L167.535 132.927L167.535 124.747L164.535 124.747L164.535 123.457L172.265 123.457L172.225 124.747ZM181.635 132.927L180.035 132.927L180.035 128.697L176.645 128.697L176.645 132.927L175.055 132.927L175.055 123.457L176.645 123.457L176.645 127.457L180.035 127.457L180.035 123.457L181.635 123.457L181.635 132.927ZM191.035 128.687L186.935 128.687L186.935 131.687L191.725 131.687L191.725 132.957L185.295 132.957L185.295 123.487L191.685 123.487L191.685 124.777L186.935 124.777L186.935 127.447L191.035 127.447L191.035 128.687ZM205.225 132.927L205.225 123.457L208.405 123.457C208.857 123.46 209.306 123.514 209.745 123.617C210.133 123.705 210.502 123.861 210.835 124.077C211.144 124.279 211.398 124.554 211.575 124.877C211.761 125.231 211.85 125.628 211.835 126.027C211.843 126.463 211.698 126.887 211.425 127.227C211.135 127.574 210.759 127.84 210.335 127.997C210.597 128.066 210.846 128.174 211.075 128.317C211.283 128.447 211.466 128.613 211.615 128.807C211.762 128.997 211.877 129.21 211.955 129.437C212.035 129.676 212.075 129.926 212.075 130.177C212.084 130.589 211.995 130.997 211.815 131.367C211.646 131.706 211.399 132.001 211.095 132.227C210.767 132.466 210.397 132.642 210.005 132.747C209.563 132.872 209.105 132.936 208.645 132.937L205.225 132.927ZM206.875 127.447L208.445 127.447C208.678 127.447 208.91 127.417 209.135 127.357C209.333 127.306 209.52 127.217 209.685 127.097C209.838 126.987 209.965 126.843 210.055 126.677C210.149 126.502 210.197 126.306 210.195 126.107C210.201 125.897 210.156 125.688 210.065 125.497C209.979 125.328 209.852 125.184 209.695 125.077C209.525 124.963 209.335 124.882 209.135 124.837C208.905 124.786 208.671 124.759 208.435 124.757L206.875 124.757L206.875 127.447ZM206.875 128.637L206.875 131.637L208.665 131.637C208.906 131.637 209.146 131.6 209.375 131.527C209.575 131.461 209.762 131.36 209.925 131.227C210.081 131.103 210.207 130.946 210.295 130.767C210.385 130.577 210.429 130.368 210.425 130.157C210.428 129.938 210.387 129.721 210.305 129.517C210.233 129.334 210.12 129.17 209.975 129.037C209.82 128.903 209.64 128.801 209.445 128.737C209.219 128.665 208.983 128.628 208.745 128.627L206.875 128.637ZM221.995 128.807C221.996 129.352 221.919 129.894 221.765 130.417C221.627 130.908 221.4 131.369 221.095 131.777C220.797 132.17 220.414 132.492 219.975 132.717C219.485 132.96 218.942 133.08 218.395 133.067C217.351 133.099 216.357 132.617 215.735 131.777C215.434 131.368 215.211 130.907 215.075 130.417C214.926 129.894 214.852 129.352 214.855 128.807L214.855 127.597C214.855 127.232 214.888 126.867 214.955 126.507C215.017 126.165 215.114 125.83 215.245 125.507C215.374 125.199 215.538 124.907 215.735 124.637C215.924 124.373 216.154 124.14 216.415 123.947C216.686 123.751 216.987 123.6 217.305 123.497C217.658 123.387 218.026 123.333 218.395 123.337C219.451 123.306 220.456 123.787 221.095 124.627C221.405 125.034 221.635 125.496 221.775 125.987C221.928 126.51 222.006 127.052 222.005 127.597L221.995 128.807ZM220.345 127.587C220.342 127.232 220.308 126.877 220.245 126.527C220.19 126.199 220.082 125.881 219.925 125.587C219.781 125.32 219.575 125.09 219.325 124.917C219.049 124.737 218.725 124.647 218.395 124.657C218.069 124.646 217.747 124.737 217.475 124.917C217.231 125.09 217.031 125.32 216.895 125.587C216.746 125.883 216.644 126.2 216.595 126.527C216.539 126.878 216.509 127.232 216.505 127.587L216.505 128.807C216.511 129.163 216.544 129.517 216.605 129.867C216.656 130.194 216.758 130.511 216.905 130.807C217.041 131.077 217.24 131.311 217.485 131.487C217.757 131.668 218.079 131.759 218.405 131.747C218.735 131.758 219.059 131.668 219.335 131.487C219.585 131.31 219.79 131.077 219.935 130.807C220.092 130.513 220.2 130.196 220.255 129.867C220.317 129.517 220.351 129.163 220.355 128.807L220.345 127.587ZM231.735 123.467L231.735 129.807C231.736 130.262 231.651 130.713 231.485 131.137C231.332 131.512 231.104 131.853 230.815 132.137C230.531 132.424 230.19 132.648 229.815 132.797C229.377 132.957 228.912 133.035 228.445 133.027C227.988 133.035 227.534 132.957 227.105 132.797C226.322 132.504 225.703 131.889 225.405 131.107C225.239 130.68 225.154 130.226 225.155 129.767L225.155 123.427L226.765 123.427L226.765 129.767C226.768 130.038 226.808 130.307 226.885 130.567C226.948 130.795 227.053 131.009 227.195 131.197C227.331 131.372 227.506 131.512 227.705 131.607C227.928 131.71 228.17 131.762 228.415 131.757C228.667 131.762 228.916 131.71 229.145 131.607C229.352 131.514 229.533 131.373 229.675 131.197C229.822 131.01 229.931 130.796 229.995 130.567C230.071 130.307 230.112 130.038 230.115 129.767L230.115 123.427L231.735 123.467ZM238.615 129.217L236.945 129.217L236.945 132.907L235.295 132.907L235.295 123.437L238.445 123.437C238.922 123.439 239.396 123.502 239.855 123.627C240.259 123.731 240.639 123.911 240.975 124.157C241.287 124.391 241.537 124.696 241.705 125.047C241.886 125.439 241.975 125.866 241.965 126.297C241.97 126.592 241.926 126.886 241.835 127.167C241.751 127.422 241.626 127.662 241.465 127.877C241.304 128.091 241.112 128.28 240.895 128.437C240.665 128.602 240.417 128.74 240.155 128.847L242.265 132.847L242.265 132.927L240.515 132.927L238.615 129.217ZM236.945 127.957L238.455 127.957C238.709 127.96 238.962 127.922 239.205 127.847C239.42 127.778 239.62 127.67 239.795 127.527C239.962 127.392 240.095 127.221 240.185 127.027C240.281 126.813 240.329 126.581 240.325 126.347C240.33 126.108 240.285 125.869 240.195 125.647C240.113 125.451 239.986 125.276 239.825 125.137C239.653 124.991 239.452 124.882 239.235 124.817C238.982 124.744 238.719 124.707 238.455 124.707L236.955 124.707L236.945 127.957ZM251.725 132.927L250.075 132.927L246.835 126.417L246.835 132.927L245.175 132.927L245.175 123.457L246.835 123.457L250.065 129.957L250.065 123.457L251.725 123.457L251.725 132.927ZM261.135 128.687L257.035 128.687L257.035 131.687L261.825 131.687L261.825 132.957L255.395 132.957L255.395 123.487L261.785 123.487L261.785 124.777L257.035 124.777L257.035 127.447L261.135 127.447L261.135 128.687ZM271.475 129.407L265.995 129.407L265.995 128.157L271.475 128.157L271.475 129.407ZM280.155 130.737L277.045 130.737L276.365 132.937L274.665 132.937L277.895 123.467L279.295 123.467L282.465 132.937L280.775 132.937L280.155 130.737ZM277.465 129.407L279.745 129.407L278.615 125.697L277.465 129.407ZM292.025 131.747C291.85 131.946 291.652 132.124 291.435 132.277C291.195 132.446 290.937 132.586 290.665 132.697C290.368 132.817 290.06 132.908 289.745 132.967C289.396 133.035 289.041 133.068 288.685 133.067C288.137 133.079 287.593 132.966 287.095 132.737C286.643 132.524 286.243 132.213 285.925 131.827C285.597 131.425 285.349 130.963 285.195 130.467C285.024 129.924 284.936 129.357 284.935 128.787L284.935 127.617C284.932 127.048 285.016 126.481 285.185 125.937C285.335 125.444 285.576 124.983 285.895 124.577C286.2 124.194 286.586 123.883 287.025 123.667C287.501 123.435 288.026 123.319 288.555 123.327C289.023 123.321 289.489 123.388 289.935 123.527C290.303 123.654 290.643 123.851 290.935 124.107C291.228 124.365 291.464 124.682 291.625 125.037C291.8 125.423 291.909 125.835 291.945 126.257L290.335 126.257C290.3 126.02 290.236 125.789 290.145 125.567C290.064 125.372 289.945 125.196 289.795 125.047C289.644 124.901 289.464 124.788 289.265 124.717C289.027 124.637 288.777 124.6 288.525 124.607C288.211 124.598 287.902 124.681 287.635 124.847C287.381 125.017 287.169 125.243 287.015 125.507C286.84 125.818 286.718 126.156 286.655 126.507C286.577 126.882 286.537 127.264 286.535 127.647L286.535 128.827C286.54 129.207 286.583 129.586 286.665 129.957C286.731 130.311 286.86 130.649 287.045 130.957C287.21 131.226 287.436 131.452 287.705 131.617C288.009 131.792 288.355 131.879 288.705 131.867L289.185 131.867C289.344 131.85 289.501 131.82 289.655 131.777C289.798 131.735 289.935 131.678 290.065 131.607C290.181 131.544 290.283 131.46 290.365 131.357L290.365 129.467L288.565 129.467L288.565 128.257L291.975 128.257L292.025 131.747ZM300.185 130.737L297.075 130.737L296.395 132.937L294.695 132.937L297.925 123.467L299.365 123.467L302.535 132.937L300.845 132.937L300.185 130.737ZM297.495 129.407L299.775 129.407L298.645 125.697L297.495 129.407ZM305.595 123.467L311.515 123.467L311.515 124.757L309.365 124.757L309.365 131.647L311.515 131.647L311.515 132.937L305.595 132.937L305.595 131.647L307.705 131.647L307.705 124.757L305.595 124.757L305.595 123.467ZM321.835 132.927L320.185 132.927L316.945 126.417L316.945 132.927L315.295 132.927L315.295 123.457L316.955 123.457L320.185 129.957L320.185 123.457L321.845 123.457L321.835 132.927ZM340.585 130.497C340.588 130.291 340.536 130.087 340.435 129.907C340.329 129.729 340.186 129.576 340.015 129.457C339.817 129.318 339.602 129.203 339.375 129.117C339.129 129.017 338.859 128.927 338.565 128.847C338.17 128.739 337.783 128.605 337.405 128.447C337.048 128.294 336.712 128.096 336.405 127.857C336.113 127.636 335.865 127.361 335.675 127.047C335.484 126.72 335.388 126.346 335.395 125.967C335.389 125.582 335.486 125.203 335.675 124.867C335.861 124.544 336.113 124.265 336.415 124.047C336.743 123.813 337.108 123.638 337.495 123.527C337.914 123.406 338.349 123.345 338.785 123.347C339.24 123.344 339.693 123.415 340.125 123.557C340.521 123.688 340.89 123.888 341.215 124.147C341.523 124.396 341.775 124.706 341.955 125.057C342.139 125.42 342.235 125.821 342.235 126.227L340.595 126.227C340.576 126.004 340.522 125.784 340.435 125.577C340.353 125.384 340.23 125.21 340.075 125.067C339.914 124.919 339.723 124.807 339.515 124.737C339.271 124.654 339.014 124.614 338.755 124.617C338.526 124.616 338.297 124.646 338.075 124.707C337.88 124.763 337.697 124.854 337.535 124.977C337.386 125.089 337.263 125.233 337.175 125.397C337.087 125.571 337.042 125.763 337.045 125.957C337.046 126.161 337.109 126.36 337.225 126.527C337.35 126.699 337.506 126.845 337.685 126.957C337.892 127.089 338.114 127.196 338.345 127.277C338.592 127.364 338.852 127.444 339.125 127.517C339.532 127.631 339.93 127.775 340.315 127.947C340.675 128.107 341.012 128.316 341.315 128.567C341.593 128.798 341.824 129.08 341.995 129.397C342.168 129.734 342.254 130.109 342.245 130.487C342.253 130.876 342.156 131.259 341.965 131.597C341.779 131.92 341.523 132.197 341.215 132.407C340.883 132.632 340.514 132.797 340.125 132.897C339.701 133.011 339.264 133.068 338.825 133.067C338.52 133.069 338.215 133.042 337.915 132.987C337.621 132.934 337.332 132.85 337.055 132.737C336.783 132.627 336.525 132.486 336.285 132.317C336.053 132.154 335.844 131.959 335.665 131.737C335.295 131.275 335.094 130.7 335.095 130.107L336.745 130.107C336.762 130.368 336.83 130.623 336.945 130.857C337.05 131.065 337.201 131.246 337.385 131.387C337.577 131.533 337.794 131.642 338.025 131.707C338.289 131.782 338.561 131.819 338.835 131.817C339.068 131.82 339.3 131.793 339.525 131.737C339.725 131.687 339.915 131.603 340.085 131.487C340.242 131.381 340.371 131.241 340.465 131.077C340.557 130.898 340.599 130.698 340.585 130.497ZM351.885 132.927L350.295 132.927L350.295 128.697L346.895 128.697L346.895 132.927L345.295 132.927L345.295 123.457L346.885 123.457L346.885 127.457L350.295 127.457L350.295 123.457L351.895 123.457L351.885 132.927ZM361.295 128.687L357.195 128.687L357.195 131.687L361.985 131.687L361.985 132.957L355.545 132.957L355.545 123.487L361.935 123.487L361.935 124.777L357.185 124.777L357.185 127.447L361.295 127.447L361.295 128.687ZM367.295 131.657L372.045 131.657L372.045 132.927L365.655 132.927L365.655 123.457L367.295 123.457L367.295 131.657ZM377.295 131.657L382.045 131.657L382.045 132.927L375.655 132.927L375.655 123.457L377.295 123.457L377.295 131.657Z" fill="#2f3a3e" fill-rule="nonzero" opacity="1" stroke="none"/>
</g>
</g>
</svg>
