<?xml version="1.0" encoding="UTF-8" standalone="no"?>
<!DOCTYPE svg PUBLIC "-//W3C//DTD SVG 1.1//EN" "http://www.w3.org/Graphics/SVG/1.1/DTD/svg11.dtd">
<!-- Created with Vectornator (http://vectornator.io/) -->
<svg stroke-miterlimit="10" style="fill-rule:nonzero;clip-rule:evenodd;stroke-linecap:round;stroke-linejoin:round;" version="1.1" viewBox="0 0 1388.47 1388.47" xml:space="preserve" xmlns="http://www.w3.org/2000/svg" xmlns:xlink="http://www.w3.org/1999/xlink">
<clipPath id="ArtboardFrame">
<rect height="1388.47" width="1388.47" x="0" y="0"/>
</clipPath>
<g clip-path="url(#ArtboardFrame)" id="g8">
<path d="M0 694.237C0 310.821 310.821 0 694.237 0C1077.65 0 1388.47 310.821 1388.47 694.237C1388.47 1077.65 1077.65 1388.47 694.237 1388.47C310.821 1388.47 0 1077.65 0 694.237Z" fill="#a1b8d3" fill-rule="nonzero" opacity="1" stroke="none"/>
<path d="M646.402 249.222C634.646 237.196 618.313 229.809 600.128 229.809C582.807 229.739 566.21 236.753 554.187 249.222L553.875 249.222C541.482 261.707 534.572 278.613 534.67 296.204C534.549 313.722 541.381 330.572 553.667 343.06L553.979 343.393C566.051 355.766 582.634 362.698 599.92 362.598C618.105 362.598 634.418 355.316 646.194 343.393L646.319 343.06C658.096 331.242 665.045 314.701 665.045 296.204C665.16 278.665 658.347 261.789 646.09 249.243L646.194 249.243L646.402 249.222ZM600.128 1158.06C618.313 1158.06 634.626 1150.53 646.402 1138.71L646.527 1138.38C658.304 1126.6 665.253 1109.96 665.253 1091.67C665.253 1072.94 658.075 1056.59 646.527 1044.6L646.402 1044.6C634.646 1032.47 618.313 1025.13 600.128 1025.13C582.788 1025.02 566.171 1032.07 554.187 1044.6L553.875 1044.6C541.615 1057.19 534.793 1074.09 534.878 1091.67C534.797 1109.13 541.625 1125.92 553.875 1138.38L554.187 1138.71C566.279 1151.07 582.838 1158.04 600.128 1158.04L600.128 1158.06ZM955.59 956.922C972.464 952.445 986.803 941.319 995.331 926.086L996.538 923.756C1004.24 908.947 1006.09 891.778 1001.7 875.671C997.412 859.109 987.133 844.42 971.279 835.306L970.363 834.682C955.6 826.354 938.138 824.214 921.8 828.731C905.571 832.851 891.006 843.858 882.101 859.671C873.445 874.999 871.087 893.093 875.526 910.127C880.012 927.04 890.918 941.536 905.925 950.534L906.029 950.534C921.634 959.689 939.257 961.291 955.611 956.776L955.59 956.922ZM666.855 626.095C649.731 608.721 626.074 597.797 599.941 597.797C574.778 597.843 550.698 608.038 533.151 626.074C516.09 643.427 505.603 667.375 505.603 694.008C505.532 719.473 515.418 743.957 533.151 762.233C550.213 779.503 573.808 790.322 599.733 790.322C625.658 790.322 649.523 779.503 666.647 762.233C684.4 743.958 694.302 719.465 694.237 693.987C694.353 668.591 684.439 644.176 666.647 626.053L666.855 626.095ZM629.403 512.948C666.761 519.279 701.13 537.345 727.528 564.527L727.736 564.527C731.933 568.813 735.912 573.306 739.658 577.989L804.783 539.643C796.215 513.252 795.478 484.944 802.661 458.143C811.941 422.771 834.495 391.145 868.244 371.316L869.346 370.609C901.291 352.051 939.344 347.082 974.982 356.814C1011.17 366.722 1041.89 390.698 1060.29 423.395L1060.29 423.499C1079.68 457.622 1083.59 496.781 1074.38 532.027C1065.14 567.399 1042.54 599.233 1008.79 618.958L999.888 624.305L998.993 624.305C968.799 638.913 934.346 642.127 901.971 633.356C875.591 626.112 851.896 611.333 833.788 590.827L768.746 629.049C776.476 649.76 780.408 671.694 780.356 693.8C780.356 716.604 776.236 738.617 768.746 758.842L833.788 796.98C852.368 775.799 876.109 761.609 901.971 754.43C936.719 744.776 975.17 748.875 1008.79 768.829L1010.96 769.869L1010.96 769.973C1042.42 789.326 1065.15 820.12 1074.38 855.884C1084.01 892.479 1078.95 931.389 1060.29 964.308L1059.12 966.701L1058.98 966.701C1040.38 998.351 1010.23 1021.56 974.878 1031.45C940.131 1040.77 901.639 1036.8 868.036 1017.14L868.036 1016.87C835.528 997.743 811.94 966.5 802.453 929.998C795.258 903.24 795.996 874.969 804.575 848.623L739.45 810.38C735.695 814.99 731.716 819.414 727.528 823.634L727.32 823.842C701.27 850.474 666.98 868.992 629.195 875.13L629.195 951.699C655.924 957.466 680.362 970.976 699.459 990.545L699.564 990.753C725.01 1016.51 740.761 1052.42 740.761 1091.87C740.827 1129.62 726.028 1165.87 699.564 1192.79L699.459 1193.2C673.867 1218.88 638.704 1234.9 599.941 1234.9C561.365 1234.9 526.119 1218.88 500.568 1192.97L500.464 1192.97L500.464 1192.56C473.972 1165.65 459.148 1129.39 459.204 1091.62C459.204 1052.15 475.017 1016.26 500.464 990.504L500.464 990.296L500.568 990.296C519.564 970.627 544.015 957.097 570.77 951.449L570.77 874.881C532.798 868.722 498.779 850.225 472.978 823.592L472.708 823.384C438.695 788.835 419.624 742.302 419.609 693.82C419.609 643.26 439.958 597.527 472.458 564.34L472.728 564.34C499.081 537.154 533.419 519.085 570.749 512.76L570.749 436.504C544.083 430.56 519.703 417.033 500.547 397.553L500.443 397.553L500.443 397.345C473.939 370.36 459.118 334.028 459.183 296.204C459.146 258.391 473.963 222.076 500.443 195.083L500.755 194.979C526.782 168.146 562.559 152.985 599.941 152.949C638.725 152.949 673.867 168.971 699.48 194.979L699.48 195.083L699.584 195.083C725.031 220.987 740.782 256.941 740.782 296.204C740.815 334.004 726.023 370.309 699.584 397.324L699.48 397.533C680.505 416.758 656.285 430.511 629.216 436.483L629.216 512.739L629.403 512.948ZM995.29 462.075L994.749 461.243C986.117 446.48 972.057 435.676 955.57 431.135C938.797 426.522 920.871 428.901 905.883 437.731L905.987 437.731C890.34 446.761 879.875 461.555 875.484 478.096C871.001 495.128 873.361 513.238 882.059 528.553L882.351 528.969C891.36 544.574 905.717 555.081 921.738 559.305C937.821 563.924 955.778 561.968 971.216 552.813L972.049 552.397C987.237 543.159 997.433 528.553 1001.64 512.531C1005.94 495.99 1004.24 477.909 995.29 462.075" fill="#ffffff" fill-rule="nonzero" opacity="1" stroke="none"/>
</g>
</svg>
